<svg t="1726681040595" class="icon" viewBox="0 0 1024 1024" version="1.1" xmlns="http://www.w3.org/2000/svg" p-id="17340" width="200" height="200"><path d="M189.44 865.28c-5.12-5.12-20.48-15.36-30.72-30.72l-10.24-15.36-5.12-307.2c0-348.16 0-327.68 35.84-358.4l20.48-15.36h624.64l15.36 10.24c15.36 10.24 25.6 25.6 30.72 40.96 10.24 20.48 10.24 35.84 10.24 322.56v302.08l-15.36 20.48C839.68 870.4 849.92 870.4 512 870.4c-245.76 0-307.2 0-322.56-5.12z m629.76-40.96c10.24-5.12 15.36-15.36 15.36-15.36V583.68l5.12-215.04H179.2v215.04c0 209.92 5.12 220.16 15.36 230.4 5.12 5.12 10.24 15.36 20.48 15.36 5.12 5.12 138.24 5.12 296.96 5.12 281.6 0 291.84 0 307.2-10.24z m15.36-558.08v-66.56l-10.24-15.36-15.36-10.24H215.04l-15.36 15.36-15.36 15.36-5.12 61.44v66.56h660.48l-5.12-66.56z m-384 445.44s20.48-61.44 46.08-133.12c46.08-117.76 51.2-128 61.44-128s15.36 0 15.36 5.12-20.48 66.56-46.08 133.12c-46.08 117.76-51.2 128-61.44 128s-15.36 0-15.36-5.12z m-97.28-56.32c-61.44-25.6-71.68-30.72-71.68-40.96 0-15.36-5.12-10.24 133.12-71.68l15.36-5.12v15.36c0 15.36-5.12 15.36-51.2 35.84-30.72 15.36-51.2 25.6-46.08 25.6 0 0 25.6 10.24 51.2 25.6 40.96 15.36 46.08 20.48 46.08 30.72s-5.12 15.36-5.12 15.36c-5.12 0-35.84-15.36-71.68-30.72z m240.64 15.36c0-10.24 5.12-15.36 46.08-30.72 25.6-15.36 51.2-25.6 51.2-25.6 5.12 0-15.36-10.24-46.08-25.6-46.08-20.48-51.2-20.48-51.2-35.84 0-10.24 0-15.36 5.12-15.36l71.68 30.72c66.56 30.72 71.68 35.84 71.68 46.08s-10.24 15.36-71.68 40.96l-71.68 30.72c-5.12 0-5.12-5.12-5.12-15.36zM271.36 266.24c-10.24-15.36 0-30.72 15.36-30.72 10.24 0 15.36 5.12 20.48 10.24 0 10.24-10.24 25.6-20.48 25.6-5.12 0-10.24-5.12-15.36-5.12z m76.8 0c-5.12-15.36 0-25.6 20.48-25.6 10.24 0 15.36 0 15.36 15.36 0 10.24-5.12 15.36-15.36 15.36s-15.36 0-20.48-5.12z m81.92 0c-10.24-15.36-5.12-25.6 15.36-30.72 10.24 0 15.36 0 15.36 10.24 10.24 20.48-15.36 35.84-30.72 20.48z" fill="#adadad" p-id="17341"></path><path d="M184.32 855.04c-10.24-5.12-25.6-20.48-30.72-30.72-10.24-25.6-10.24-25.6-10.24-327.68l5.12-307.2 10.24-15.36c30.72-40.96 10.24-35.84 353.28-35.84h307.2l20.48 10.24c10.24 10.24 25.6 25.6 30.72 35.84 10.24 25.6 10.24 25.6 10.24 327.68v302.08l-20.48 20.48C829.44 870.4 849.92 870.4 512 870.4H209.92l-25.6-15.36z m640-35.84l20.48-15.36v-435.2H179.2v209.92c0 225.28 0 235.52 25.6 250.88 10.24 5.12 112.64 5.12 307.2 5.12h296.96l15.36-15.36z m20.48-537.6c0-61.44-5.12-76.8-20.48-92.16l-10.24-15.36H512c-194.56 0-302.08 0-307.2 5.12-20.48 10.24-25.6 30.72-25.6 92.16v61.44h665.6v-51.2z m-10.24 296.96c0-107.52 5.12-153.6 5.12-97.28v194.56c0 56.32-5.12 10.24-5.12-97.28z m-384 133.12s20.48-61.44 46.08-128c46.08-117.76 51.2-128 61.44-128 20.48 0 20.48-15.36-35.84 138.24-40.96 112.64-46.08 122.88-56.32 122.88s-15.36 0-15.36-5.12z m-97.28-56.32c-61.44-25.6-66.56-30.72-66.56-40.96s5.12-15.36 56.32-40.96c81.92-35.84 87.04-35.84 87.04-20.48 0 10.24-5.12 15.36-51.2 35.84-30.72 10.24-51.2 25.6-46.08 25.6 0 5.12 25.6 15.36 51.2 25.6 35.84 15.36 46.08 20.48 46.08 30.72s0 15.36-5.12 15.36l-71.68-30.72z m240.64 15.36c0-10.24 10.24-15.36 56.32-35.84l51.2-20.48-51.2-25.6c-51.2-20.48-56.32-25.6-56.32-35.84 0-5.12 0-10.24 5.12-10.24s128 51.2 138.24 56.32c5.12 5.12 5.12 10.24 5.12 15.36 0 10.24-20.48 20.48-71.68 40.96-40.96 15.36-71.68 30.72-76.8 30.72v-15.36zM834.56 281.6c0-25.6 5.12-40.96 5.12-25.6v46.08c0 10.24-5.12 0-5.12-20.48z m-563.2-20.48c-5.12-10.24 0-25.6 15.36-25.6s20.48 15.36 15.36 25.6c-5.12 15.36-25.6 10.24-30.72 0z m81.92 5.12c-5.12 0-5.12-10.24-5.12-15.36 0-10.24 5.12-10.24 15.36-10.24 20.48 0 25.6 10.24 15.36 25.6-5.12 5.12-15.36 5.12-25.6 0z m76.8 0c-10.24-15.36 0-30.72 15.36-30.72 10.24 0 15.36 5.12 15.36 20.48 0 10.24-5.12 15.36-15.36 15.36-5.12 0-10.24-5.12-15.36-5.12z" fill="#adadad" p-id="17342"></path><path d="M199.68 865.28c-20.48-10.24-46.08-35.84-51.2-51.2-5.12-10.24-5.12-112.64-5.12-312.32 0-332.8 0-322.56 40.96-353.28l20.48-10.24h614.4l20.48 10.24c40.96 30.72 35.84 15.36 40.96 343.04 0 194.56 0 296.96-5.12 312.32-5.12 25.6-25.6 51.2-51.2 61.44-20.48 10.24-604.16 10.24-624.64 0z m624.64-46.08l20.48-15.36v-435.2H179.2v215.04c0 220.16 0 225.28 20.48 240.64 10.24 10.24 35.84 10.24 312.32 10.24h296.96l15.36-15.36z m20.48-547.84c0-61.44-5.12-81.92-25.6-92.16-5.12-5.12-112.64-5.12-307.2-5.12H209.92l-15.36 10.24c-10.24 15.36-15.36 15.36-15.36 81.92v66.56h665.6v-61.44z m-10.24 307.2c0-107.52 5.12-153.6 5.12-97.28v194.56c0 56.32-5.12 10.24-5.12-97.28z m-384 128c5.12-5.12 25.6-61.44 51.2-128 40.96-112.64 46.08-122.88 61.44-122.88 10.24 0 10.24 0 10.24 10.24-5.12 5.12-25.6 56.32-46.08 122.88-25.6 61.44-46.08 112.64-51.2 117.76 0 5.12-5.12 10.24-15.36 10.24s-10.24 0-10.24-10.24z m-92.16-51.2c-61.44-25.6-71.68-30.72-71.68-40.96s5.12-15.36 66.56-40.96c40.96-15.36 71.68-30.72 71.68-30.72 5.12 0 5.12 20.48 0 25.6-5.12 0-30.72 15.36-56.32 25.6-40.96 15.36-46.08 20.48-35.84 25.6 76.8 30.72 107.52 46.08 92.16 61.44 0 0-30.72-10.24-66.56-25.6z m240.64 15.36c0-10.24 5.12-15.36 46.08-30.72 25.6-15.36 51.2-25.6 51.2-25.6 5.12 0-15.36-10.24-46.08-25.6-40.96-15.36-51.2-20.48-51.2-35.84 0-10.24 0-10.24 5.12-10.24 5.12 5.12 40.96 15.36 71.68 30.72 56.32 25.6 61.44 25.6 61.44 40.96 0 10.24-10.24 15.36-71.68 40.96l-66.56 30.72v-15.36zM834.56 281.6c0-25.6 5.12-40.96 5.12-25.6v46.08c0 10.24-5.12 0-5.12-20.48z m-558.08-15.36c-5.12 0-5.12-10.24-5.12-15.36 5.12-20.48 25.6-20.48 30.72 0 0 10.24-5.12 20.48-15.36 20.48 0 0-5.12 0-10.24-5.12z m76.8 0c-10.24-15.36-5.12-25.6 15.36-25.6 10.24 0 15.36 0 15.36 5.12 0 10.24-10.24 25.6-15.36 25.6s-10.24-5.12-15.36-5.12z m76.8-5.12c-5.12-5.12-5.12-10.24 0-15.36 10.24-15.36 25.6-10.24 30.72 5.12 0 20.48-20.48 30.72-30.72 10.24z" fill="#adadad" p-id="17343"></path><path d="M194.56 865.28c-20.48-10.24-40.96-35.84-46.08-61.44-5.12-10.24-5.12-112.64-5.12-312.32 0-291.84 5.12-296.96 15.36-312.32 5.12-10.24 20.48-25.6 30.72-30.72l20.48-10.24H819.2l15.36 10.24c20.48 15.36 35.84 35.84 40.96 61.44s5.12 558.08 0 588.8-20.48 46.08-46.08 61.44l-20.48 10.24H512c-235.52 0-302.08 0-317.44-5.12z m629.76-40.96c20.48-15.36 20.48-20.48 20.48-240.64V368.64H179.2v435.2l15.36 15.36 15.36 15.36H512c276.48 0 302.08 0 312.32-10.24z m20.48-552.96c0-66.56-5.12-81.92-35.84-97.28-25.6-10.24-568.32-10.24-593.92 0-30.72 15.36-35.84 25.6-35.84 97.28v61.44h665.6v-61.44z m-10.24 307.2c0-107.52 5.12-153.6 5.12-97.28v194.56c0 56.32-5.12 10.24-5.12-97.28z m-332.8 5.12c25.6-66.56 46.08-122.88 46.08-128h15.36c10.24 0 5.12 10.24-35.84 128-46.08 117.76-51.2 128-61.44 128-15.36 0-15.36 0 35.84-128z m-148.48 71.68c-56.32-25.6-66.56-30.72-66.56-40.96 0-15.36 10.24-20.48 133.12-71.68 5.12 0 5.12 5.12 5.12 10.24 0 10.24-5.12 15.36-51.2 35.84-25.6 10.24-51.2 25.6-51.2 25.6 5.12 0 25.6 10.24 51.2 25.6 40.96 15.36 51.2 20.48 51.2 30.72 0 5.12-5.12 10.24-5.12 10.24-5.12 0-35.84-15.36-66.56-25.6z m245.76 15.36c0-10.24 10.24-15.36 51.2-30.72 25.6-15.36 46.08-25.6 51.2-25.6 0 0-25.6-15.36-51.2-25.6-46.08-20.48-51.2-25.6-51.2-35.84 0-5.12 0-10.24 5.12-10.24 0 0 30.72 15.36 66.56 30.72 61.44 25.6 66.56 30.72 66.56 40.96s-10.24 15.36-66.56 40.96c-35.84 15.36-66.56 25.6-66.56 25.6-5.12 0-5.12-5.12-5.12-10.24zM834.56 281.6c0-25.6 5.12-40.96 5.12-25.6v46.08c0 10.24-5.12 0-5.12-20.48z m-558.08-15.36c-5.12 0-5.12-10.24-5.12-15.36 5.12-20.48 25.6-20.48 30.72 0 0 10.24-5.12 20.48-15.36 20.48 0 0-5.12 0-10.24-5.12z m76.8 0c-10.24-10.24-5.12-25.6 5.12-30.72 10.24 0 25.6 10.24 25.6 20.48s-15.36 15.36-30.72 10.24z m81.92 0c-5.12 0-5.12-10.24-5.12-15.36 5.12-20.48 25.6-20.48 30.72 0 0 10.24-5.12 20.48-15.36 20.48 0 0-5.12 0-10.24-5.12z" fill="#adadad" p-id="17344"></path><path d="M194.56 860.16c-25.6-15.36-40.96-30.72-46.08-61.44-5.12-25.6-5.12-563.2 0-593.92 5.12-25.6 15.36-40.96 40.96-56.32 15.36-10.24 25.6-10.24 322.56-10.24h307.2l15.36 10.24c10.24 5.12 20.48 20.48 25.6 25.6 10.24 15.36 15.36 20.48 15.36 327.68V819.2l-15.36 15.36c-5.12 10.24-20.48 20.48-30.72 25.6C808.96 870.4 788.48 870.4 512 870.4H215.04l-20.48-10.24z m609.28-25.6c15.36-5.12 25.6-10.24 30.72-20.48 10.24-15.36 10.24-30.72 10.24-230.4V368.64H179.2v215.04c0 215.04 0 220.16 10.24 230.4 5.12 10.24 20.48 15.36 25.6 20.48 25.6 5.12 568.32 5.12 588.8 0z m40.96-563.2c0-56.32 0-66.56-10.24-76.8-20.48-25.6-20.48-25.6-332.8-25.6l-291.84 5.12-15.36 15.36c-15.36 15.36-15.36 15.36-15.36 81.92v66.56h665.6v-66.56z m-10.24 307.2c0-107.52 5.12-153.6 5.12-97.28v194.56c0 56.32-5.12 10.24-5.12-97.28z m-378.88 128s20.48-56.32 46.08-128c40.96-112.64 51.2-122.88 61.44-122.88s10.24 0 5.12 15.36c-5.12 5.12-25.6 61.44-46.08 117.76s-40.96 107.52-46.08 112.64c0 10.24-20.48 15.36-20.48 5.12z m-102.4-51.2c-51.2-25.6-66.56-30.72-66.56-40.96s5.12-15.36 25.6-25.6c15.36-5.12 46.08-15.36 71.68-25.6 40.96-20.48 40.96-20.48 40.96-10.24s-5.12 15.36-51.2 35.84c-30.72 10.24-51.2 25.6-46.08 25.6 0 5.12 25.6 15.36 51.2 25.6 35.84 15.36 46.08 20.48 46.08 30.72 0 5.12 0 10.24-5.12 10.24 0 0-30.72-10.24-66.56-25.6z m245.76 15.36c0-10.24 10.24-15.36 51.2-30.72 20.48-10.24 46.08-20.48 46.08-25.6 5.12 0-15.36-15.36-46.08-25.6-46.08-20.48-51.2-25.6-51.2-35.84s-10.24-15.36 87.04 25.6c46.08 20.48 51.2 25.6 51.2 35.84s-10.24 15.36-61.44 35.84c-76.8 35.84-76.8 35.84-76.8 20.48zM834.56 281.6c0-25.6 5.12-40.96 5.12-25.6v46.08c0 10.24-5.12 0-5.12-20.48zM271.36 256c0-10.24 5.12-15.36 10.24-15.36 15.36-5.12 20.48 0 20.48 15.36 0 10.24 0 10.24-15.36 10.24s-15.36 0-15.36-10.24z m81.92 0c-5.12-5.12 5.12-20.48 15.36-20.48 5.12 0 15.36 15.36 10.24 25.6 0 10.24-25.6 5.12-25.6-5.12z m76.8 0c0-15.36 5.12-20.48 20.48-15.36s10.24 20.48-5.12 25.6c-15.36 0-15.36 0-15.36-10.24z" fill="#adadad" p-id="17345"></path><path d="M204.8 865.28c-25.6-10.24-40.96-20.48-51.2-40.96-5.12-15.36-10.24-51.2-10.24-296.96v-307.2c5.12-30.72 20.48-51.2 46.08-71.68l15.36-10.24h312.32c302.08 0 307.2 5.12 322.56 15.36l20.48 20.48c10.24 15.36 15.36 20.48 15.36 322.56 0 348.16 0 332.8-35.84 358.4L819.2 870.4H522.24c-245.76 0-302.08 0-317.44-5.12z m599.04-30.72c10.24-5.12 25.6-10.24 30.72-20.48 10.24-10.24 10.24-15.36 10.24-230.4V368.64H179.2v215.04c0 194.56 0 220.16 10.24 230.4 15.36 25.6 20.48 25.6 317.44 25.6 174.08 0 286.72 0 296.96-5.12z m40.96-563.2c0-66.56 0-66.56-15.36-81.92l-15.36-15.36H209.92l-15.36 10.24-15.36 15.36v138.24h665.6v-66.56z m-10.24 307.2c0-107.52 5.12-153.6 5.12-97.28v194.56c0 56.32-5.12 10.24-5.12-97.28z m-378.88 128s20.48-56.32 46.08-128c40.96-107.52 51.2-122.88 61.44-122.88s15.36-15.36-76.8 220.16c-10.24 25.6-15.36 35.84-20.48 35.84s-10.24 0-10.24-5.12z m-102.4-56.32c-56.32-20.48-66.56-30.72-66.56-35.84 0-10.24 5.12-15.36 25.6-25.6 15.36-5.12 46.08-15.36 71.68-25.6 40.96-20.48 40.96-20.48 40.96-10.24s-5.12 15.36-51.2 35.84c-30.72 10.24-51.2 25.6-46.08 25.6 0 5.12 25.6 15.36 51.2 25.6 30.72 15.36 46.08 20.48 46.08 30.72 0 5.12 0 10.24-5.12 10.24 0 0-30.72-15.36-66.56-30.72z m245.76 20.48c0-10.24 15.36-15.36 51.2-30.72l51.2-25.6s-20.48-15.36-51.2-25.6c-46.08-20.48-51.2-25.6-51.2-35.84s0-10.24 40.96 10.24c25.6 10.24 56.32 20.48 71.68 25.6 20.48 10.24 25.6 15.36 25.6 25.6 0 5.12-10.24 15.36-66.56 35.84-35.84 15.36-66.56 30.72-66.56 30.72-5.12 0-5.12-5.12-5.12-10.24zM834.56 281.6c0-25.6 5.12-40.96 5.12-25.6v46.08c0 10.24-5.12 0-5.12-20.48z m-558.08-20.48c-10.24-5.12-5.12-20.48 5.12-20.48 10.24-5.12 20.48 0 20.48 10.24s-20.48 20.48-25.6 10.24z m76.8 0c-5.12-5.12 0-15.36 0-20.48 10.24-10.24 25.6-5.12 25.6 10.24 0 10.24 0 15.36-10.24 15.36s-15.36-5.12-15.36-5.12z m76.8-5.12c0-15.36 5.12-20.48 20.48-15.36s10.24 20.48-5.12 25.6c-15.36 0-15.36 0-15.36-10.24z" fill="#adadad" p-id="17346"></path><path d="M209.92 865.28c-20.48-5.12-40.96-20.48-51.2-40.96-10.24-15.36-10.24-35.84-10.24-322.56v-307.2l10.24-15.36c5.12-10.24 20.48-20.48 25.6-25.6 15.36-10.24 20.48-10.24 327.68-10.24h312.32l15.36 10.24c35.84 30.72 35.84 15.36 35.84 348.16 0 250.88 0 307.2-5.12 317.44-15.36 20.48-35.84 40.96-61.44 46.08-20.48 5.12-573.44 5.12-599.04 0z m599.04-30.72c35.84-15.36 35.84-10.24 35.84-250.88V368.64H179.2v435.2l15.36 15.36c5.12 10.24 15.36 15.36 20.48 15.36 10.24 5.12 138.24 5.12 296.96 5.12 230.4 0 286.72 0 296.96-5.12z m35.84-563.2c0-66.56 0-66.56-15.36-81.92l-15.36-15.36-296.96-5.12c-215.04 0-296.96 0-307.2 5.12-25.6 10.24-30.72 20.48-30.72 97.28v66.56h665.6v-66.56z m-10.24 307.2c0-107.52 5.12-153.6 5.12-97.28v194.56c0 56.32-5.12 10.24-5.12-97.28z m-378.88 128c0-5.12 25.6-61.44 46.08-128 46.08-112.64 51.2-122.88 61.44-122.88s10.24 0 5.12 10.24c0 5.12-25.6 61.44-46.08 128-40.96 97.28-51.2 117.76-56.32 117.76s-10.24-5.12-10.24-5.12z m-102.4-56.32c-87.04-35.84-87.04-35.84 5.12-76.8 61.44-30.72 66.56-30.72 66.56-20.48s-10.24 15.36-51.2 35.84c-25.6 10.24-51.2 20.48-51.2 25.6l51.2 25.6c35.84 15.36 51.2 20.48 51.2 30.72 0 5.12 0 10.24-5.12 10.24 0 0-30.72-15.36-66.56-30.72z m245.76 20.48c0-10.24 10.24-15.36 51.2-30.72 25.6-10.24 51.2-25.6 51.2-25.6 5.12 0-20.48-15.36-46.08-25.6-46.08-20.48-56.32-25.6-56.32-35.84s5.12-10.24 66.56 20.48c92.16 40.96 92.16 40.96 10.24 76.8s-76.8 35.84-76.8 20.48zM834.56 281.6c0-25.6 5.12-40.96 5.12-25.6v46.08c0 10.24-5.12 0-5.12-20.48z m-558.08-20.48c-10.24-5.12-5.12-20.48 5.12-20.48 10.24-5.12 20.48 0 20.48 10.24s-20.48 20.48-25.6 10.24z m76.8 0c-5.12-5.12 0-15.36 0-20.48 10.24-10.24 25.6-5.12 25.6 10.24 0 10.24 0 15.36-10.24 15.36s-15.36-5.12-15.36-5.12z m81.92 0c-10.24-5.12-5.12-20.48 5.12-20.48 10.24-5.12 20.48 5.12 20.48 15.36-5.12 10.24-20.48 15.36-25.6 5.12z" p-id="17347" fill="#adadad"></path></svg>