<svg t="1726679094194" class="icon" viewBox="0 0 1024 1024" version="1.1" xmlns="http://www.w3.org/2000/svg" p-id="13033" width="200" height="200"><path d="M980.433455 4.635927a18.8416 18.8416 0 0 0-14.689746-4.486982l-577.163636 74.677528A18.618182 18.618182 0 0 0 372.363636 93.277091v663.049309C338.366836 715.459491 284.355491 688.872727 223.418182 688.872727c-102.660655 0-186.181818 75.1616-186.181818 167.563637s83.521164 167.563636 186.181818 167.563636 186.181818-75.1616 186.181818-167.563636c0-4.319418-0.353745-8.564364-0.726109-12.790691 0.242036-1.210182 0.726109-2.308655 0.726109-3.574691V300.087855l539.927273-69.874037v339.912146C915.530473 529.277673 861.519127 502.690909 800.581818 502.690909c-102.660655 0-186.181818 75.1616-186.181818 167.563636s83.521164 167.563636 186.181818 167.563637c101.729745 0 184.562036-73.839709 186.051491-165.087418 0-0.242036 0.130327-0.446836 0.130327-0.688873V18.618182a18.580945 18.580945 0 0 0-6.330181-13.982255zM223.418182 986.763636c-82.1248 0-148.945455-58.479709-148.945455-130.327272s66.820655-130.327273 148.945455-130.327273 148.945455 58.479709 148.945454 130.327273-66.820655 130.327273-148.945454 130.327272z m577.163636-186.181818c-82.1248 0-148.945455-58.479709-148.945454-130.327273s66.820655-130.327273 148.945454-130.327272 148.945455 58.479709 148.945455 130.327272-66.820655 130.327273-148.945455 130.327273zM409.6 262.534982V109.642473l539.927273-69.855418V192.660945l-539.927273 69.874037z" fill="#adadad" p-id="13034"></path></svg>