<svg t="1726680963095" class="icon" viewBox="0 0 1024 1024" version="1.1" xmlns="http://www.w3.org/2000/svg" p-id="17075" width="200" height="200"><path d="M909.240303 216.715787 117.935016 216.715787l0-53.844326 791.305287 0L909.240303 216.715787z" fill="#adadad" p-id="17076"></path><path d="M909.240303 862.823134 117.935016 862.823134l0-53.841256 791.305287 0L909.240303 862.823134z" fill="#adadad" p-id="17077"></path><path d="M249.819742 297.479205l-52.754504 0 0-53.841256 52.754504 0L249.819742 297.479205z" fill="#adadad" p-id="17078"></path><path d="M328.949964 297.479205l-52.754504 0 0-53.841256 52.754504 0L328.949964 297.479205z" fill="#adadad" p-id="17079"></path><path d="M408.080186 297.479205l-52.751435 0 0-53.841256 52.751435 0L408.080186 297.479205z" fill="#adadad" p-id="17080"></path><path d="M408.080186 728.21846 197.065238 728.21846 197.065238 459.006042l211.014948 0L408.080186 728.21846zM249.819742 674.374134l105.509009 0L355.328751 512.850367 249.819742 512.850367 249.819742 674.374134z" fill="#adadad" p-id="17081"></path><path d="M645.473921 512.850367 460.83469 512.850367l0-53.844326 184.639231 0L645.473921 512.850367z" fill="#adadad" p-id="17082"></path><path d="M935.61909 378.242624 91.559299 378.242624 91.559299 162.871461l844.059791 0L935.61909 378.242624zM144.310733 324.401368l738.553852 0L882.864586 216.715787 144.310733 216.715787 144.310733 324.401368z" fill="#adadad" p-id="17083"></path><path d="M935.61909 862.823134 91.559299 862.823134 91.559299 459.138048l52.751435 0 0 349.84383 738.553852 0L882.864586 432.715259l52.754504 0L935.61909 862.823134z" fill="#adadad" p-id="17084"></path><path d="M645.473921 512.850367 460.83469 512.850367l0-53.844326 184.639231 0L645.473921 512.850367z" fill="#adadad" p-id="17085"></path><path d="M830.110081 620.532879 460.83469 620.532879l0-53.841256L830.110081 566.691623 830.110081 620.532879z" fill="#adadad" p-id="17086"></path><path d="M830.110081 728.21846 460.83469 728.21846l0-53.844326L830.110081 674.374134 830.110081 728.21846z" fill="#adadad" p-id="17087"></path></svg>